# xmcd
#
# Track frame offsets:
#	150
#	16212
#	33992
#	48859
#	53761
#	70752
#	96745
#	98223
#	119319
#	137674
#	164919
#	168121
#	184500
#	212401
#	227290
#	231600
#	252364
#	273158
#	288058
#
# Disc length: 4080 seconds
#
# Revision: 2
# Processed by: cddbd v1.4PL0 Copyright (c) Steve Scherf et al.
# Submitted via: CDmax 1.8
#
DISCID=020fee13
DTITLE=Chris Gaffney and The Cold Hard Facts - Live and Then Some
DYEAR=1999
DGENRE=Country
TTITLE0=Six Nights a Week
TTITLE1=Frank's Tavern
TTITLE2=Fight (Tonight's the Night)
TTITLE3=between song banter - couple shots of Gold?
TTITLE4=Fade to Grey
TTITLE5=C'mon Joe
TTITLE6=between song banter - Little Jimmy Dickens
TTITLE7=Albuquerque
TTITLE8=Dallas
TTITLE9=Waltz for Minnie
TTITLE10=between song banter - basset hound
TTITLE11=Every Now and Then
TTITLE12=Are You Listenin' Lucky
TTITLE13=Buona Sera
TTITLE14=between song banter - R.J.
TTITLE15=East of Houston, West of Baton Rouge
TTITLE16=King of the Blues
TTITLE17=The Lord Knows I Drinkin'
TTITLE18='68
EXTD=
EXTT0=
EXTT1=
EXTT2=
EXTT3=
EXTT4=
EXTT5=
EXTT6=
EXTT7=
EXTT8=
EXTT9=
EXTT10=
EXTT11=
EXTT12=
EXTT13=
EXTT14=
EXTT15=
EXTT16=
EXTT17=
EXTT18=
PLAYORDER=
